<svg width="333" height="152" viewBox="0 0 333 152" fill="none" xmlns="http://www.w3.org/2000/svg">
<g filter="url(#filter0_d_3_60)">
<mask id="path-1-outside-1_3_60" maskUnits="userSpaceOnUse" x="64" y="0" width="164" height="44" fill="black">
<rect fill="white" x="64" width="164" height="44"/>
<path d="M66 33.3662L68.8547 32.5775C69.0242 34.6807 69.487 36.2488 70.243 37.2817C70.9991 38.2958 72.0028 38.8028 73.2542 38.8028C74.5056 38.8028 75.4702 38.3615 76.148 37.4789C76.8389 36.5775 77.1844 35.4413 77.1844 34.0704C77.1844 32.8873 76.8911 31.9671 76.3045 31.3099C75.9004 30.8592 74.9227 30.2958 73.3715 29.6197C71.1294 28.6244 69.6304 27.7793 68.8743 27.0845C68.1182 26.3897 67.5317 25.4601 67.1145 24.2958C66.6974 23.1315 66.4888 21.8075 66.4888 20.3239C66.4888 17.77 67.0559 15.6948 68.1899 14.0986C69.324 12.5023 70.8948 11.7042 72.9022 11.7042C74.1667 11.7042 75.2747 12.0329 76.2263 12.6901C77.1909 13.3474 77.9274 14.23 78.4358 15.338C78.9441 16.446 79.2961 18.0329 79.4916 20.0986L76.676 20.7746C76.4153 17.507 75.1834 15.8732 72.9804 15.8732C71.7291 15.8732 70.797 16.2394 70.1844 16.9718C69.5717 17.6854 69.2654 18.6056 69.2654 19.7324C69.2654 20.8404 69.5587 21.7136 70.1453 22.3521C70.4972 22.7277 71.54 23.3286 73.2737 24.1549C75.6592 25.2629 77.2039 26.1455 77.9078 26.8028C78.6117 27.4413 79.1592 28.3239 79.5503 29.4507C79.9413 30.5587 80.1369 31.8826 80.1369 33.4225C80.1369 36.277 79.5047 38.5869 78.2402 40.3521C76.9888 42.1174 75.2747 43 73.0978 43C69.0177 43 66.6518 39.7887 66 33.3662Z"/>
<path d="M94.6844 42.2958V37.9014C94.0196 39.5915 93.2374 40.8592 92.338 41.7042C91.4385 42.5493 90.4218 42.9718 89.2877 42.9718C87.9451 42.9718 86.798 42.4554 85.8464 41.4225C84.8948 40.3709 84.2561 39.0469 83.9302 37.4507C83.6173 35.8545 83.4609 33.6761 83.4609 30.9155V12.3803H86.3352V28.9718C86.3352 32.0516 86.4395 34.1174 86.648 35.169C86.8696 36.2019 87.2672 37.0376 87.8408 37.6761C88.4274 38.2958 89.0922 38.6056 89.8352 38.6056C91.2169 38.6056 92.351 37.7887 93.2374 36.1549C93.9935 34.7465 94.3715 32.1643 94.3715 28.4084V12.3803H97.2654V42.2958H94.6844Z"/>
<path d="M104.441 42.2958H101.763V1H104.637V15.7324C105.25 14.3803 105.94 13.3756 106.709 12.7183C107.492 12.0423 108.358 11.7042 109.31 11.7042C110.64 11.7042 111.845 12.277 112.927 13.4225C114.022 14.5681 114.896 16.3052 115.547 18.6338C116.199 20.9624 116.525 23.7887 116.525 27.1127C116.525 32.1831 115.789 36.0986 114.316 38.8592C112.843 41.6009 111.122 42.9718 109.154 42.9718C108.163 42.9718 107.27 42.6056 106.475 41.8732C105.693 41.1221 105.015 40.0141 104.441 38.5493V42.2958ZM104.402 27.1127C104.402 30.2113 104.598 32.5305 104.989 34.0704C105.38 35.6103 105.934 36.784 106.651 37.5915C107.368 38.3991 108.163 38.8028 109.036 38.8028C110.223 38.8028 111.272 37.8451 112.184 35.9296C113.11 33.9953 113.573 31.1127 113.573 27.2817C113.573 23.3568 113.129 20.4742 112.243 18.6338C111.357 16.7934 110.268 15.8732 108.978 15.8732C107.791 15.8732 106.729 16.8404 105.791 18.7746C104.865 20.6901 104.402 23.4695 104.402 27.1127Z"/>
<path d="M120.084 42.2958V12.3803H122.665V16.5775C123.238 15.0188 123.975 13.8169 124.874 12.9718C125.774 12.1268 126.758 11.7042 127.827 11.7042C129.026 11.7042 130.036 12.1549 130.858 13.0563C131.692 13.939 132.285 15.2347 132.637 16.9437C133.315 15.1972 134.09 13.892 134.964 13.0282C135.85 12.1455 136.828 11.7042 137.897 11.7042C139.526 11.7042 140.81 12.5023 141.749 14.0986C142.687 15.6948 143.156 18.2488 143.156 21.7606V42.2958H140.282V23.4507C140.282 21.3099 140.171 19.7981 139.95 18.9155C139.741 18.0141 139.396 17.3192 138.913 16.831C138.431 16.3427 137.89 16.0986 137.291 16.0986C136.052 16.0986 135.042 16.8122 134.26 18.2394C133.478 19.6479 133.087 21.8732 133.087 24.9155V42.2958H130.193V22.8592C130.193 20.3803 129.926 18.6338 129.391 17.6197C128.87 16.6056 128.146 16.0986 127.221 16.0986C125.904 16.0986 124.861 16.8685 124.092 18.4084C123.336 19.9296 122.958 22.7183 122.958 26.7746V42.2958H120.084Z"/>
<path d="M147.419 6.83099V1H150.293V6.83099H147.419ZM147.419 42.2958V12.3803H150.293V42.2958H147.419Z"/>
<path d="M153.637 33.3662L156.492 32.5775C156.661 34.6807 157.124 36.2488 157.88 37.2817C158.636 38.2958 159.64 38.8028 160.891 38.8028C162.142 38.8028 163.107 38.3615 163.785 37.4789C164.476 36.5775 164.821 35.4413 164.821 34.0704C164.821 32.8873 164.528 31.9671 163.941 31.3099C163.537 30.8592 162.56 30.2958 161.008 29.6197C158.766 28.6244 157.267 27.7793 156.511 27.0845C155.755 26.3897 155.169 25.4601 154.751 24.2958C154.334 23.1315 154.126 21.8075 154.126 20.3239C154.126 17.77 154.693 15.6948 155.827 14.0986C156.961 12.5023 158.532 11.7042 160.539 11.7042C161.804 11.7042 162.912 12.0329 163.863 12.6901C164.828 13.3474 165.564 14.23 166.073 15.338C166.581 16.446 166.933 18.0329 167.128 20.0986L164.313 20.7746C164.052 17.507 162.82 15.8732 160.617 15.8732C159.366 15.8732 158.434 16.2394 157.821 16.9718C157.209 17.6854 156.902 18.6056 156.902 19.7324C156.902 20.8404 157.196 21.7136 157.782 22.3521C158.134 22.7277 159.177 23.3286 160.911 24.1549C163.296 25.2629 164.841 26.1455 165.545 26.8028C166.249 27.4413 166.796 28.3239 167.187 29.4507C167.578 30.5587 167.774 31.8826 167.774 33.4225C167.774 36.277 167.142 38.5869 165.877 40.3521C164.626 42.1174 162.912 43 160.735 43C156.655 43 154.289 39.7887 153.637 33.3662Z"/>
<path d="M170.061 33.3662L172.916 32.5775C173.086 34.6807 173.548 36.2488 174.304 37.2817C175.061 38.2958 176.064 38.8028 177.316 38.8028C178.567 38.8028 179.532 38.3615 180.21 37.4789C180.9 36.5775 181.246 35.4413 181.246 34.0704C181.246 32.8873 180.953 31.9671 180.366 31.3099C179.962 30.8592 178.984 30.2958 177.433 29.6197C175.191 28.6244 173.692 27.7793 172.936 27.0845C172.18 26.3897 171.593 25.4601 171.176 24.2958C170.759 23.1315 170.55 21.8075 170.55 20.3239C170.55 17.77 171.117 15.6948 172.251 14.0986C173.385 12.5023 174.956 11.7042 176.964 11.7042C178.228 11.7042 179.336 12.0329 180.288 12.6901C181.252 13.3474 181.989 14.23 182.497 15.338C183.006 16.446 183.358 18.0329 183.553 20.0986L180.737 20.7746C180.477 17.507 179.245 15.8732 177.042 15.8732C175.791 15.8732 174.858 16.2394 174.246 16.9718C173.633 17.6854 173.327 18.6056 173.327 19.7324C173.327 20.8404 173.62 21.7136 174.207 22.3521C174.559 22.7277 175.601 23.3286 177.335 24.1549C179.721 25.2629 181.265 26.1455 181.969 26.8028C182.673 27.4413 183.221 28.3239 183.612 29.4507C184.003 30.5587 184.198 31.8826 184.198 33.4225C184.198 36.277 183.566 38.5869 182.302 40.3521C181.05 42.1174 179.336 43 177.159 43C173.079 43 170.713 39.7887 170.061 33.3662Z"/>
<path d="M187.581 6.83099V1H190.455V6.83099H187.581ZM187.581 42.2958V12.3803H190.455V42.2958H187.581Z"/>
<path d="M193.818 27.338C193.818 22.1737 194.568 18.277 196.067 15.6479C197.579 13.0188 199.489 11.7042 201.796 11.7042C204.064 11.7042 205.961 13.0188 207.486 15.6479C209.011 18.277 209.774 22.0704 209.774 27.0282C209.774 32.3991 209.024 36.3991 207.525 39.0282C206.026 41.6573 204.116 42.9718 201.796 42.9718C199.515 42.9718 197.612 41.6573 196.087 39.0282C194.574 36.3803 193.818 32.4836 193.818 27.338ZM196.771 27.338C196.771 31.2066 197.26 34.0892 198.237 35.9859C199.215 37.8639 200.427 38.8028 201.874 38.8028C203.23 38.8028 204.39 37.8545 205.355 35.9577C206.332 34.0423 206.821 31.169 206.821 27.338C206.821 23.4883 206.332 20.6244 205.355 18.7465C204.377 16.8498 203.165 15.9014 201.718 15.9014C200.349 15.9014 199.182 16.8498 198.218 18.7465C197.253 20.6432 196.771 23.507 196.771 27.338Z"/>
<path d="M213.156 42.2958V12.3803H215.757V16.6338C216.383 14.9812 217.145 13.7512 218.045 12.9437C218.957 12.1174 220 11.7042 221.173 11.7042C222.086 11.7042 222.926 11.9671 223.696 12.493C224.478 13 225.103 13.6761 225.573 14.5211C226.055 15.3474 226.413 16.4272 226.648 17.7606C226.883 19.0939 227 21.1408 227 23.9014V42.2958H224.106V24.0986C224.106 21.9014 223.976 20.2958 223.715 19.2817C223.454 18.2676 223.044 17.4883 222.483 16.9437C221.936 16.3803 221.297 16.0986 220.567 16.0986C219.185 16.0986 218.084 16.8404 217.263 18.3239C216.441 19.8075 216.031 22.3521 216.031 25.9577V42.2958H213.156Z"/>
</mask>
<path d="M66 33.3662L68.8547 32.5775C69.0242 34.6807 69.487 36.2488 70.243 37.2817C70.9991 38.2958 72.0028 38.8028 73.2542 38.8028C74.5056 38.8028 75.4702 38.3615 76.148 37.4789C76.8389 36.5775 77.1844 35.4413 77.1844 34.0704C77.1844 32.8873 76.8911 31.9671 76.3045 31.3099C75.9004 30.8592 74.9227 30.2958 73.3715 29.6197C71.1294 28.6244 69.6304 27.7793 68.8743 27.0845C68.1182 26.3897 67.5317 25.4601 67.1145 24.2958C66.6974 23.1315 66.4888 21.8075 66.4888 20.3239C66.4888 17.77 67.0559 15.6948 68.1899 14.0986C69.324 12.5023 70.8948 11.7042 72.9022 11.7042C74.1667 11.7042 75.2747 12.0329 76.2263 12.6901C77.1909 13.3474 77.9274 14.23 78.4358 15.338C78.9441 16.446 79.2961 18.0329 79.4916 20.0986L76.676 20.7746C76.4153 17.507 75.1834 15.8732 72.9804 15.8732C71.7291 15.8732 70.797 16.2394 70.1844 16.9718C69.5717 17.6854 69.2654 18.6056 69.2654 19.7324C69.2654 20.8404 69.5587 21.7136 70.1453 22.3521C70.4972 22.7277 71.54 23.3286 73.2737 24.1549C75.6592 25.2629 77.2039 26.1455 77.9078 26.8028C78.6117 27.4413 79.1592 28.3239 79.5503 29.4507C79.9413 30.5587 80.1369 31.8826 80.1369 33.4225C80.1369 36.277 79.5047 38.5869 78.2402 40.3521C76.9888 42.1174 75.2747 43 73.0978 43C69.0177 43 66.6518 39.7887 66 33.3662Z" fill="#F8FAF6"/>
<path d="M94.6844 42.2958V37.9014C94.0196 39.5915 93.2374 40.8592 92.338 41.7042C91.4385 42.5493 90.4218 42.9718 89.2877 42.9718C87.9451 42.9718 86.798 42.4554 85.8464 41.4225C84.8948 40.3709 84.2561 39.0469 83.9302 37.4507C83.6173 35.8545 83.4609 33.6761 83.4609 30.9155V12.3803H86.3352V28.9718C86.3352 32.0516 86.4395 34.1174 86.648 35.169C86.8696 36.2019 87.2672 37.0376 87.8408 37.6761C88.4274 38.2958 89.0922 38.6056 89.8352 38.6056C91.2169 38.6056 92.351 37.7887 93.2374 36.1549C93.9935 34.7465 94.3715 32.1643 94.3715 28.4084V12.3803H97.2654V42.2958H94.6844Z" fill="#F8FAF6"/>
<path d="M104.441 42.2958H101.763V1H104.637V15.7324C105.25 14.3803 105.94 13.3756 106.709 12.7183C107.492 12.0423 108.358 11.7042 109.31 11.7042C110.64 11.7042 111.845 12.277 112.927 13.4225C114.022 14.5681 114.896 16.3052 115.547 18.6338C116.199 20.9624 116.525 23.7887 116.525 27.1127C116.525 32.1831 115.789 36.0986 114.316 38.8592C112.843 41.6009 111.122 42.9718 109.154 42.9718C108.163 42.9718 107.27 42.6056 106.475 41.8732C105.693 41.1221 105.015 40.0141 104.441 38.5493V42.2958ZM104.402 27.1127C104.402 30.2113 104.598 32.5305 104.989 34.0704C105.38 35.6103 105.934 36.784 106.651 37.5915C107.368 38.3991 108.163 38.8028 109.036 38.8028C110.223 38.8028 111.272 37.8451 112.184 35.9296C113.11 33.9953 113.573 31.1127 113.573 27.2817C113.573 23.3568 113.129 20.4742 112.243 18.6338C111.357 16.7934 110.268 15.8732 108.978 15.8732C107.791 15.8732 106.729 16.8404 105.791 18.7746C104.865 20.6901 104.402 23.4695 104.402 27.1127Z" fill="#F8FAF6"/>
<path d="M120.084 42.2958V12.3803H122.665V16.5775C123.238 15.0188 123.975 13.8169 124.874 12.9718C125.774 12.1268 126.758 11.7042 127.827 11.7042C129.026 11.7042 130.036 12.1549 130.858 13.0563C131.692 13.939 132.285 15.2347 132.637 16.9437C133.315 15.1972 134.09 13.892 134.964 13.0282C135.85 12.1455 136.828 11.7042 137.897 11.7042C139.526 11.7042 140.81 12.5023 141.749 14.0986C142.687 15.6948 143.156 18.2488 143.156 21.7606V42.2958H140.282V23.4507C140.282 21.3099 140.171 19.7981 139.95 18.9155C139.741 18.0141 139.396 17.3192 138.913 16.831C138.431 16.3427 137.89 16.0986 137.291 16.0986C136.052 16.0986 135.042 16.8122 134.26 18.2394C133.478 19.6479 133.087 21.8732 133.087 24.9155V42.2958H130.193V22.8592C130.193 20.3803 129.926 18.6338 129.391 17.6197C128.87 16.6056 128.146 16.0986 127.221 16.0986C125.904 16.0986 124.861 16.8685 124.092 18.4084C123.336 19.9296 122.958 22.7183 122.958 26.7746V42.2958H120.084Z" fill="#F8FAF6"/>
<path d="M147.419 6.83099V1H150.293V6.83099H147.419ZM147.419 42.2958V12.3803H150.293V42.2958H147.419Z" fill="#F8FAF6"/>
<path d="M153.637 33.3662L156.492 32.5775C156.661 34.6807 157.124 36.2488 157.88 37.2817C158.636 38.2958 159.64 38.8028 160.891 38.8028C162.142 38.8028 163.107 38.3615 163.785 37.4789C164.476 36.5775 164.821 35.4413 164.821 34.0704C164.821 32.8873 164.528 31.9671 163.941 31.3099C163.537 30.8592 162.56 30.2958 161.008 29.6197C158.766 28.6244 157.267 27.7793 156.511 27.0845C155.755 26.3897 155.169 25.4601 154.751 24.2958C154.334 23.1315 154.126 21.8075 154.126 20.3239C154.126 17.77 154.693 15.6948 155.827 14.0986C156.961 12.5023 158.532 11.7042 160.539 11.7042C161.804 11.7042 162.912 12.0329 163.863 12.6901C164.828 13.3474 165.564 14.23 166.073 15.338C166.581 16.446 166.933 18.0329 167.128 20.0986L164.313 20.7746C164.052 17.507 162.82 15.8732 160.617 15.8732C159.366 15.8732 158.434 16.2394 157.821 16.9718C157.209 17.6854 156.902 18.6056 156.902 19.7324C156.902 20.8404 157.196 21.7136 157.782 22.3521C158.134 22.7277 159.177 23.3286 160.911 24.1549C163.296 25.2629 164.841 26.1455 165.545 26.8028C166.249 27.4413 166.796 28.3239 167.187 29.4507C167.578 30.5587 167.774 31.8826 167.774 33.4225C167.774 36.277 167.142 38.5869 165.877 40.3521C164.626 42.1174 162.912 43 160.735 43C156.655 43 154.289 39.7887 153.637 33.3662Z" fill="#F8FAF6"/>
<path d="M170.061 33.3662L172.916 32.5775C173.086 34.6807 173.548 36.2488 174.304 37.2817C175.061 38.2958 176.064 38.8028 177.316 38.8028C178.567 38.8028 179.532 38.3615 180.21 37.4789C180.9 36.5775 181.246 35.4413 181.246 34.0704C181.246 32.8873 180.953 31.9671 180.366 31.3099C179.962 30.8592 178.984 30.2958 177.433 29.6197C175.191 28.6244 173.692 27.7793 172.936 27.0845C172.18 26.3897 171.593 25.4601 171.176 24.2958C170.759 23.1315 170.55 21.8075 170.55 20.3239C170.55 17.77 171.117 15.6948 172.251 14.0986C173.385 12.5023 174.956 11.7042 176.964 11.7042C178.228 11.7042 179.336 12.0329 180.288 12.6901C181.252 13.3474 181.989 14.23 182.497 15.338C183.006 16.446 183.358 18.0329 183.553 20.0986L180.737 20.7746C180.477 17.507 179.245 15.8732 177.042 15.8732C175.791 15.8732 174.858 16.2394 174.246 16.9718C173.633 17.6854 173.327 18.6056 173.327 19.7324C173.327 20.8404 173.62 21.7136 174.207 22.3521C174.559 22.7277 175.601 23.3286 177.335 24.1549C179.721 25.2629 181.265 26.1455 181.969 26.8028C182.673 27.4413 183.221 28.3239 183.612 29.4507C184.003 30.5587 184.198 31.8826 184.198 33.4225C184.198 36.277 183.566 38.5869 182.302 40.3521C181.05 42.1174 179.336 43 177.159 43C173.079 43 170.713 39.7887 170.061 33.3662Z" fill="#F8FAF6"/>
<path d="M187.581 6.83099V1H190.455V6.83099H187.581ZM187.581 42.2958V12.3803H190.455V42.2958H187.581Z" fill="#F8FAF6"/>
<path d="M193.818 27.338C193.818 22.1737 194.568 18.277 196.067 15.6479C197.579 13.0188 199.489 11.7042 201.796 11.7042C204.064 11.7042 205.961 13.0188 207.486 15.6479C209.011 18.277 209.774 22.0704 209.774 27.0282C209.774 32.3991 209.024 36.3991 207.525 39.0282C206.026 41.6573 204.116 42.9718 201.796 42.9718C199.515 42.9718 197.612 41.6573 196.087 39.0282C194.574 36.3803 193.818 32.4836 193.818 27.338ZM196.771 27.338C196.771 31.2066 197.26 34.0892 198.237 35.9859C199.215 37.8639 200.427 38.8028 201.874 38.8028C203.23 38.8028 204.39 37.8545 205.355 35.9577C206.332 34.0423 206.821 31.169 206.821 27.338C206.821 23.4883 206.332 20.6244 205.355 18.7465C204.377 16.8498 203.165 15.9014 201.718 15.9014C200.349 15.9014 199.182 16.8498 198.218 18.7465C197.253 20.6432 196.771 23.507 196.771 27.338Z" fill="#F8FAF6"/>
<path d="M213.156 42.2958V12.3803H215.757V16.6338C216.383 14.9812 217.145 13.7512 218.045 12.9437C218.957 12.1174 220 11.7042 221.173 11.7042C222.086 11.7042 222.926 11.9671 223.696 12.493C224.478 13 225.103 13.6761 225.573 14.5211C226.055 15.3474 226.413 16.4272 226.648 17.7606C226.883 19.0939 227 21.1408 227 23.9014V42.2958H224.106V24.0986C224.106 21.9014 223.976 20.2958 223.715 19.2817C223.454 18.2676 223.044 17.4883 222.483 16.9437C221.936 16.3803 221.297 16.0986 220.567 16.0986C219.185 16.0986 218.084 16.8404 217.263 18.3239C216.441 19.8075 216.031 22.3521 216.031 25.9577V42.2958H213.156Z" fill="#F8FAF6"/>
<path d="M66 33.3662L68.8547 32.5775C69.0242 34.6807 69.487 36.2488 70.243 37.2817C70.9991 38.2958 72.0028 38.8028 73.2542 38.8028C74.5056 38.8028 75.4702 38.3615 76.148 37.4789C76.8389 36.5775 77.1844 35.4413 77.1844 34.0704C77.1844 32.8873 76.8911 31.9671 76.3045 31.3099C75.9004 30.8592 74.9227 30.2958 73.3715 29.6197C71.1294 28.6244 69.6304 27.7793 68.8743 27.0845C68.1182 26.3897 67.5317 25.4601 67.1145 24.2958C66.6974 23.1315 66.4888 21.8075 66.4888 20.3239C66.4888 17.77 67.0559 15.6948 68.1899 14.0986C69.324 12.5023 70.8948 11.7042 72.9022 11.7042C74.1667 11.7042 75.2747 12.0329 76.2263 12.6901C77.1909 13.3474 77.9274 14.23 78.4358 15.338C78.9441 16.446 79.2961 18.0329 79.4916 20.0986L76.676 20.7746C76.4153 17.507 75.1834 15.8732 72.9804 15.8732C71.7291 15.8732 70.797 16.2394 70.1844 16.9718C69.5717 17.6854 69.2654 18.6056 69.2654 19.7324C69.2654 20.8404 69.5587 21.7136 70.1453 22.3521C70.4972 22.7277 71.54 23.3286 73.2737 24.1549C75.6592 25.2629 77.2039 26.1455 77.9078 26.8028C78.6117 27.4413 79.1592 28.3239 79.5503 29.4507C79.9413 30.5587 80.1369 31.8826 80.1369 33.4225C80.1369 36.277 79.5047 38.5869 78.2402 40.3521C76.9888 42.1174 75.2747 43 73.0978 43C69.0177 43 66.6518 39.7887 66 33.3662Z" stroke="black" stroke-width="2" mask="url(#path-1-outside-1_3_60)"/>
<path d="M94.6844 42.2958V37.9014C94.0196 39.5915 93.2374 40.8592 92.338 41.7042C91.4385 42.5493 90.4218 42.9718 89.2877 42.9718C87.9451 42.9718 86.798 42.4554 85.8464 41.4225C84.8948 40.3709 84.2561 39.0469 83.9302 37.4507C83.6173 35.8545 83.4609 33.6761 83.4609 30.9155V12.3803H86.3352V28.9718C86.3352 32.0516 86.4395 34.1174 86.648 35.169C86.8696 36.2019 87.2672 37.0376 87.8408 37.6761C88.4274 38.2958 89.0922 38.6056 89.8352 38.6056C91.2169 38.6056 92.351 37.7887 93.2374 36.1549C93.9935 34.7465 94.3715 32.1643 94.3715 28.4084V12.3803H97.2654V42.2958H94.6844Z" stroke="black" stroke-width="2" mask="url(#path-1-outside-1_3_60)"/>
<path d="M104.441 42.2958H101.763V1H104.637V15.7324C105.25 14.3803 105.94 13.3756 106.709 12.7183C107.492 12.0423 108.358 11.7042 109.31 11.7042C110.64 11.7042 111.845 12.277 112.927 13.4225C114.022 14.5681 114.896 16.3052 115.547 18.6338C116.199 20.9624 116.525 23.7887 116.525 27.1127C116.525 32.1831 115.789 36.0986 114.316 38.8592C112.843 41.6009 111.122 42.9718 109.154 42.9718C108.163 42.9718 107.27 42.6056 106.475 41.8732C105.693 41.1221 105.015 40.0141 104.441 38.5493V42.2958ZM104.402 27.1127C104.402 30.2113 104.598 32.5305 104.989 34.0704C105.38 35.6103 105.934 36.784 106.651 37.5915C107.368 38.3991 108.163 38.8028 109.036 38.8028C110.223 38.8028 111.272 37.8451 112.184 35.9296C113.11 33.9953 113.573 31.1127 113.573 27.2817C113.573 23.3568 113.129 20.4742 112.243 18.6338C111.357 16.7934 110.268 15.8732 108.978 15.8732C107.791 15.8732 106.729 16.8404 105.791 18.7746C104.865 20.6901 104.402 23.4695 104.402 27.1127Z" stroke="black" stroke-width="2" mask="url(#path-1-outside-1_3_60)"/>
<path d="M120.084 42.2958V12.3803H122.665V16.5775C123.238 15.0188 123.975 13.8169 124.874 12.9718C125.774 12.1268 126.758 11.7042 127.827 11.7042C129.026 11.7042 130.036 12.1549 130.858 13.0563C131.692 13.939 132.285 15.2347 132.637 16.9437C133.315 15.1972 134.09 13.892 134.964 13.0282C135.85 12.1455 136.828 11.7042 137.897 11.7042C139.526 11.7042 140.81 12.5023 141.749 14.0986C142.687 15.6948 143.156 18.2488 143.156 21.7606V42.2958H140.282V23.4507C140.282 21.3099 140.171 19.7981 139.95 18.9155C139.741 18.0141 139.396 17.3192 138.913 16.831C138.431 16.3427 137.89 16.0986 137.291 16.0986C136.052 16.0986 135.042 16.8122 134.26 18.2394C133.478 19.6479 133.087 21.8732 133.087 24.9155V42.2958H130.193V22.8592C130.193 20.3803 129.926 18.6338 129.391 17.6197C128.87 16.6056 128.146 16.0986 127.221 16.0986C125.904 16.0986 124.861 16.8685 124.092 18.4084C123.336 19.9296 122.958 22.7183 122.958 26.7746V42.2958H120.084Z" stroke="black" stroke-width="2" mask="url(#path-1-outside-1_3_60)"/>
<path d="M147.419 6.83099V1H150.293V6.83099H147.419ZM147.419 42.2958V12.3803H150.293V42.2958H147.419Z" stroke="black" stroke-width="2" mask="url(#path-1-outside-1_3_60)"/>
<path d="M153.637 33.3662L156.492 32.5775C156.661 34.6807 157.124 36.2488 157.88 37.2817C158.636 38.2958 159.64 38.8028 160.891 38.8028C162.142 38.8028 163.107 38.3615 163.785 37.4789C164.476 36.5775 164.821 35.4413 164.821 34.0704C164.821 32.8873 164.528 31.9671 163.941 31.3099C163.537 30.8592 162.56 30.2958 161.008 29.6197C158.766 28.6244 157.267 27.7793 156.511 27.0845C155.755 26.3897 155.169 25.4601 154.751 24.2958C154.334 23.1315 154.126 21.8075 154.126 20.3239C154.126 17.77 154.693 15.6948 155.827 14.0986C156.961 12.5023 158.532 11.7042 160.539 11.7042C161.804 11.7042 162.912 12.0329 163.863 12.6901C164.828 13.3474 165.564 14.23 166.073 15.338C166.581 16.446 166.933 18.0329 167.128 20.0986L164.313 20.7746C164.052 17.507 162.82 15.8732 160.617 15.8732C159.366 15.8732 158.434 16.2394 157.821 16.9718C157.209 17.6854 156.902 18.6056 156.902 19.7324C156.902 20.8404 157.196 21.7136 157.782 22.3521C158.134 22.7277 159.177 23.3286 160.911 24.1549C163.296 25.2629 164.841 26.1455 165.545 26.8028C166.249 27.4413 166.796 28.3239 167.187 29.4507C167.578 30.5587 167.774 31.8826 167.774 33.4225C167.774 36.277 167.142 38.5869 165.877 40.3521C164.626 42.1174 162.912 43 160.735 43C156.655 43 154.289 39.7887 153.637 33.3662Z" stroke="black" stroke-width="2" mask="url(#path-1-outside-1_3_60)"/>
<path d="M170.061 33.3662L172.916 32.5775C173.086 34.6807 173.548 36.2488 174.304 37.2817C175.061 38.2958 176.064 38.8028 177.316 38.8028C178.567 38.8028 179.532 38.3615 180.21 37.4789C180.9 36.5775 181.246 35.4413 181.246 34.0704C181.246 32.8873 180.953 31.9671 180.366 31.3099C179.962 30.8592 178.984 30.2958 177.433 29.6197C175.191 28.6244 173.692 27.7793 172.936 27.0845C172.18 26.3897 171.593 25.4601 171.176 24.2958C170.759 23.1315 170.55 21.8075 170.55 20.3239C170.55 17.77 171.117 15.6948 172.251 14.0986C173.385 12.5023 174.956 11.7042 176.964 11.7042C178.228 11.7042 179.336 12.0329 180.288 12.6901C181.252 13.3474 181.989 14.23 182.497 15.338C183.006 16.446 183.358 18.0329 183.553 20.0986L180.737 20.7746C180.477 17.507 179.245 15.8732 177.042 15.8732C175.791 15.8732 174.858 16.2394 174.246 16.9718C173.633 17.6854 173.327 18.6056 173.327 19.7324C173.327 20.8404 173.62 21.7136 174.207 22.3521C174.559 22.7277 175.601 23.3286 177.335 24.1549C179.721 25.2629 181.265 26.1455 181.969 26.8028C182.673 27.4413 183.221 28.3239 183.612 29.4507C184.003 30.5587 184.198 31.8826 184.198 33.4225C184.198 36.277 183.566 38.5869 182.302 40.3521C181.05 42.1174 179.336 43 177.159 43C173.079 43 170.713 39.7887 170.061 33.3662Z" stroke="black" stroke-width="2" mask="url(#path-1-outside-1_3_60)"/>
<path d="M187.581 6.83099V1H190.455V6.83099H187.581ZM187.581 42.2958V12.3803H190.455V42.2958H187.581Z" stroke="black" stroke-width="2" mask="url(#path-1-outside-1_3_60)"/>
<path d="M193.818 27.338C193.818 22.1737 194.568 18.277 196.067 15.6479C197.579 13.0188 199.489 11.7042 201.796 11.7042C204.064 11.7042 205.961 13.0188 207.486 15.6479C209.011 18.277 209.774 22.0704 209.774 27.0282C209.774 32.3991 209.024 36.3991 207.525 39.0282C206.026 41.6573 204.116 42.9718 201.796 42.9718C199.515 42.9718 197.612 41.6573 196.087 39.0282C194.574 36.3803 193.818 32.4836 193.818 27.338ZM196.771 27.338C196.771 31.2066 197.26 34.0892 198.237 35.9859C199.215 37.8639 200.427 38.8028 201.874 38.8028C203.23 38.8028 204.39 37.8545 205.355 35.9577C206.332 34.0423 206.821 31.169 206.821 27.338C206.821 23.4883 206.332 20.6244 205.355 18.7465C204.377 16.8498 203.165 15.9014 201.718 15.9014C200.349 15.9014 199.182 16.8498 198.218 18.7465C197.253 20.6432 196.771 23.507 196.771 27.338Z" stroke="black" stroke-width="2" mask="url(#path-1-outside-1_3_60)"/>
<path d="M213.156 42.2958V12.3803H215.757V16.6338C216.383 14.9812 217.145 13.7512 218.045 12.9437C218.957 12.1174 220 11.7042 221.173 11.7042C222.086 11.7042 222.926 11.9671 223.696 12.493C224.478 13 225.103 13.6761 225.573 14.5211C226.055 15.3474 226.413 16.4272 226.648 17.7606C226.883 19.0939 227 21.1408 227 23.9014V42.2958H224.106V24.0986C224.106 21.9014 223.976 20.2958 223.715 19.2817C223.454 18.2676 223.044 17.4883 222.483 16.9437C221.936 16.3803 221.297 16.0986 220.567 16.0986C219.185 16.0986 218.084 16.8404 217.263 18.3239C216.441 19.8075 216.031 22.3521 216.031 25.9577V42.2958H213.156Z" stroke="black" stroke-width="2" mask="url(#path-1-outside-1_3_60)"/>
</g>
<g filter="url(#filter1_d_3_60)">
<mask id="path-2-outside-2_3_60" maskUnits="userSpaceOnUse" x="0" y="20.5117" width="330" height="129" fill="black">
<rect fill="white" y="20.5117" width="330" height="129"/>
<path d="M43.0282 130.523C40.9598 136.713 38.4225 141.244 35.4162 144.118C32.4099 147.047 29.3074 148.512 26.1087 148.512C18.2442 148.18 12.1113 141.907 7.71007 129.694C3.23669 117.922 1 103.83 1 87.4158C1 69.1782 3.11644 53.7867 7.34932 41.2415C11.486 28.4199 17.7391 21.8433 26.1087 21.5117C31.977 21.5117 36.9554 24.6342 41.044 30.8792C45.1326 37.29 47.718 47.5694 48.8003 61.7173H41.7655C41.044 52.5433 39.2763 45.7732 36.4624 41.4073C33.5523 37.2071 30.101 35.107 26.1087 35.107C19.8074 35.3281 15.2018 40.5783 12.2917 50.8577C9.40563 61.0818 7.98666 72.9639 8.03476 86.5039C8.03476 99.5465 9.61006 110.765 12.7607 120.161C15.8151 129.777 20.2644 134.695 26.1087 134.916C31.6403 134.806 35.9092 130.965 38.9155 123.394C41.8497 116.043 43.2206 106.703 43.0282 95.374H26.1808V81.7787H49.3053V145.61H44.868L43.0282 130.523Z"/>
<path d="M84.9842 117.756H91.1892C89.1689 137.431 83.7335 147.406 74.883 147.683C68.8223 147.406 64.3128 143.04 61.3546 134.585C58.3483 126.184 56.7489 115.159 56.5565 101.508C56.6046 88.0237 58.3002 77.0811 61.6432 68.6808C64.9381 60.2252 69.2191 55.9421 74.4861 55.8316C81.1962 56.1632 85.8259 61.8002 88.3753 72.7428C90.9487 83.5195 92.0911 94.6279 91.8025 106.068H63.1945C63.0983 113.86 64.0362 120.52 66.0084 126.046C67.9324 131.849 70.9628 134.806 75.0994 134.916C80.4146 134.916 83.7095 129.196 84.9842 117.756ZM63.1945 93.3015H85.1285C84.9361 86.1723 83.8538 80.2865 81.8817 75.6442C79.9095 71.0019 77.3241 68.6255 74.1254 68.515C70.8786 68.6255 68.3172 71.0019 66.4413 75.6442C64.5172 80.3971 63.435 86.2828 63.1945 93.3015Z"/>
<path d="M98.2961 145.61V57.8211H104.212V71.748H104.357C107.123 61.137 111.259 55.8316 116.767 55.8316C121.745 55.9421 125.221 58.8712 127.193 64.6188C129.069 70.5322 129.983 78.297 129.934 87.9132V145.61H123.621V86.1723C123.525 74.7323 120.94 68.8466 115.865 68.515C112.137 68.6255 109.335 71.1677 107.459 76.1416C105.535 81.2813 104.573 87.9132 104.573 96.0372V145.61H98.2961Z"/>
<path d="M165.794 117.756H171.999C169.978 137.431 164.543 147.406 155.692 147.683C149.632 147.406 145.122 143.04 142.164 134.585C139.158 126.184 137.558 115.159 137.366 101.508C137.414 88.0237 139.11 77.0811 142.453 68.6808C145.748 60.2252 150.029 55.9421 155.296 55.8316C162.006 56.1632 166.635 61.8002 169.185 72.7428C171.758 83.5195 172.901 94.6279 172.612 106.068H144.004C143.908 113.86 144.846 120.52 146.818 126.046C148.742 131.849 151.772 134.806 155.909 134.916C161.224 134.916 164.519 129.196 165.794 117.756ZM144.004 93.3015H165.938C165.746 86.1723 164.663 80.2865 162.691 75.6442C160.719 71.0019 158.134 68.6255 154.935 68.515C151.688 68.6255 149.127 71.0019 147.251 75.6442C145.327 80.3971 144.244 86.2828 144.004 93.3015Z"/>
<path d="M178.889 145.61V57.8211H184.806V76.3074H184.95C187.764 62.1595 192.442 55.3342 198.983 55.8316V71.0848C189.531 71.4164 184.926 83.2432 185.166 106.565V145.61H178.889Z"/>
<path d="M227.339 100.265C226.112 102.199 224.465 103.443 222.396 103.995C220.28 104.714 218.139 105.46 215.975 106.234C213.858 106.897 212.067 108.361 210.6 110.627C209.06 112.893 208.291 116.679 208.291 121.984C208.291 126.627 209.06 129.97 210.6 132.015C212.019 133.949 213.714 134.916 215.686 134.916C217.755 134.916 219.546 134.17 221.062 132.678C222.553 131.462 223.767 129.832 224.705 127.787C226.461 123.476 227.339 119.221 227.339 115.021V100.265ZM237.548 134.087V145.279C236.514 146.881 235.011 147.683 233.039 147.683C229.551 147.793 227.784 143.261 227.736 134.087C224.176 143.151 219.691 147.683 214.279 147.683C210.72 147.683 207.762 145.693 205.405 141.714C202.952 137.845 201.701 131.628 201.653 123.062C201.653 117.922 202.038 113.777 202.807 110.627C203.505 107.367 204.467 104.824 205.693 103.001C206.992 101.066 208.399 99.5465 209.914 98.4412C211.405 97.3912 212.957 96.5898 214.568 96.0372C216.348 95.2635 218.019 94.6555 219.582 94.2134C221.122 93.716 222.481 93.1357 223.659 92.4726C226.112 91.3672 227.363 88.2447 227.411 83.1051C227.411 79.9549 227.194 77.3575 226.762 75.3126C226.208 73.4889 225.523 72.0796 224.705 71.0848C222.974 69.2611 221.05 68.4045 218.933 68.515C216.215 68.515 214.027 69.6479 212.367 71.9138C210.588 74.4008 209.602 78.822 209.409 85.1775H203.132C203.469 74.4008 205.164 66.7741 208.219 62.2976C211.273 57.9869 214.965 55.8316 219.294 55.8316C221.074 55.8316 222.829 56.0526 224.561 56.4947C226.269 57.1579 227.796 58.3461 229.143 60.0594C230.513 61.7726 231.62 64.2043 232.462 67.3544C233.231 70.5045 233.616 74.6771 233.616 79.872V125.052C233.568 128.478 233.676 130.91 233.941 132.347C234.133 134.06 234.698 134.916 235.636 134.916C236.117 134.916 236.755 134.64 237.548 134.087Z"/>
<path d="M252.123 31.5424V57.8211H259.735V70.5874H252.123V125.052C252.075 128.146 252.387 130.246 253.061 131.352C253.71 132.457 254.973 132.954 256.849 132.844H259.735V145.61H254.937C251.714 145.721 249.393 144.477 247.974 141.88C246.555 139.393 245.846 134.253 245.846 126.461V70.5874H239.316V57.8211H245.846V31.5424H252.123Z"/>
<path d="M264.641 101.84C264.641 88.5763 266.24 77.6338 269.439 69.0124C272.542 60.3357 277.123 55.9421 283.184 55.8316C289.245 55.9421 293.874 60.3357 297.073 69.0124C300.176 77.6338 301.727 88.5763 301.727 101.84C301.727 114.827 300.176 125.632 297.073 134.253C293.874 142.93 289.245 147.406 283.184 147.683C277.123 147.406 272.542 142.93 269.439 134.253C266.24 125.632 264.641 114.827 264.641 101.84ZM271.279 101.84C271.327 112.451 272.506 120.603 274.814 126.295C277.027 132.043 279.817 134.916 283.184 134.916C286.575 134.916 289.377 132.043 291.59 126.295C293.85 120.603 295.005 112.451 295.053 101.84C295.005 91.0633 293.85 82.8011 291.59 77.0535C289.377 71.3612 286.575 68.515 283.184 68.515C279.817 68.515 277.027 71.3612 274.814 77.0535C272.506 82.8011 271.327 91.0633 271.279 101.84Z"/>
<path d="M308.906 145.61V57.8211H314.822V76.3074H314.967C317.78 62.1595 322.458 55.3342 329 55.8316V71.0848C319.548 71.4164 314.943 83.2432 315.183 106.565V145.61H308.906Z"/>
</mask>
<path d="M43.0282 130.523C40.9598 136.713 38.4225 141.244 35.4162 144.118C32.4099 147.047 29.3074 148.512 26.1087 148.512C18.2442 148.18 12.1113 141.907 7.71007 129.694C3.23669 117.922 1 103.83 1 87.4158C1 69.1782 3.11644 53.7867 7.34932 41.2415C11.486 28.4199 17.7391 21.8433 26.1087 21.5117C31.977 21.5117 36.9554 24.6342 41.044 30.8792C45.1326 37.29 47.718 47.5694 48.8003 61.7173H41.7655C41.044 52.5433 39.2763 45.7732 36.4624 41.4073C33.5523 37.2071 30.101 35.107 26.1087 35.107C19.8074 35.3281 15.2018 40.5783 12.2917 50.8577C9.40563 61.0818 7.98666 72.9639 8.03476 86.5039C8.03476 99.5465 9.61006 110.765 12.7607 120.161C15.8151 129.777 20.2644 134.695 26.1087 134.916C31.6403 134.806 35.9092 130.965 38.9155 123.394C41.8497 116.043 43.2206 106.703 43.0282 95.374H26.1808V81.7787H49.3053V145.61H44.868L43.0282 130.523Z" fill="#F8FAF6"/>
<path d="M84.9842 117.756H91.1892C89.1689 137.431 83.7335 147.406 74.883 147.683C68.8223 147.406 64.3128 143.04 61.3546 134.585C58.3483 126.184 56.7489 115.159 56.5565 101.508C56.6046 88.0237 58.3002 77.0811 61.6432 68.6808C64.9381 60.2252 69.2191 55.9421 74.4861 55.8316C81.1962 56.1632 85.8259 61.8002 88.3753 72.7428C90.9487 83.5195 92.0911 94.6279 91.8025 106.068H63.1945C63.0983 113.86 64.0362 120.52 66.0084 126.046C67.9324 131.849 70.9628 134.806 75.0994 134.916C80.4146 134.916 83.7095 129.196 84.9842 117.756ZM63.1945 93.3015H85.1285C84.9361 86.1723 83.8538 80.2865 81.8817 75.6442C79.9095 71.0019 77.3241 68.6255 74.1254 68.515C70.8786 68.6255 68.3172 71.0019 66.4413 75.6442C64.5172 80.3971 63.435 86.2828 63.1945 93.3015Z" fill="#F8FAF6"/>
<path d="M98.2961 145.61V57.8211H104.212V71.748H104.357C107.123 61.137 111.259 55.8316 116.767 55.8316C121.745 55.9421 125.221 58.8712 127.193 64.6188C129.069 70.5322 129.983 78.297 129.934 87.9132V145.61H123.621V86.1723C123.525 74.7323 120.94 68.8466 115.865 68.515C112.137 68.6255 109.335 71.1677 107.459 76.1416C105.535 81.2813 104.573 87.9132 104.573 96.0372V145.61H98.2961Z" fill="#F8FAF6"/>
<path d="M165.794 117.756H171.999C169.978 137.431 164.543 147.406 155.692 147.683C149.632 147.406 145.122 143.04 142.164 134.585C139.158 126.184 137.558 115.159 137.366 101.508C137.414 88.0237 139.11 77.0811 142.453 68.6808C145.748 60.2252 150.029 55.9421 155.296 55.8316C162.006 56.1632 166.635 61.8002 169.185 72.7428C171.758 83.5195 172.901 94.6279 172.612 106.068H144.004C143.908 113.86 144.846 120.52 146.818 126.046C148.742 131.849 151.772 134.806 155.909 134.916C161.224 134.916 164.519 129.196 165.794 117.756ZM144.004 93.3015H165.938C165.746 86.1723 164.663 80.2865 162.691 75.6442C160.719 71.0019 158.134 68.6255 154.935 68.515C151.688 68.6255 149.127 71.0019 147.251 75.6442C145.327 80.3971 144.244 86.2828 144.004 93.3015Z" fill="#F8FAF6"/>
<path d="M178.889 145.61V57.8211H184.806V76.3074H184.95C187.764 62.1595 192.442 55.3342 198.983 55.8316V71.0848C189.531 71.4164 184.926 83.2432 185.166 106.565V145.61H178.889Z" fill="#F8FAF6"/>
<path d="M227.339 100.265C226.112 102.199 224.465 103.443 222.396 103.995C220.28 104.714 218.139 105.46 215.975 106.234C213.858 106.897 212.067 108.361 210.6 110.627C209.06 112.893 208.291 116.679 208.291 121.984C208.291 126.627 209.06 129.97 210.6 132.015C212.019 133.949 213.714 134.916 215.686 134.916C217.755 134.916 219.546 134.17 221.062 132.678C222.553 131.462 223.767 129.832 224.705 127.787C226.461 123.476 227.339 119.221 227.339 115.021V100.265ZM237.548 134.087V145.279C236.514 146.881 235.011 147.683 233.039 147.683C229.551 147.793 227.784 143.261 227.736 134.087C224.176 143.151 219.691 147.683 214.279 147.683C210.72 147.683 207.762 145.693 205.405 141.714C202.952 137.845 201.701 131.628 201.653 123.062C201.653 117.922 202.038 113.777 202.807 110.627C203.505 107.367 204.467 104.824 205.693 103.001C206.992 101.066 208.399 99.5465 209.914 98.4412C211.405 97.3912 212.957 96.5898 214.568 96.0372C216.348 95.2635 218.019 94.6555 219.582 94.2134C221.122 93.716 222.481 93.1357 223.659 92.4726C226.112 91.3672 227.363 88.2447 227.411 83.1051C227.411 79.9549 227.194 77.3575 226.762 75.3126C226.208 73.4889 225.523 72.0796 224.705 71.0848C222.974 69.2611 221.05 68.4045 218.933 68.515C216.215 68.515 214.027 69.6479 212.367 71.9138C210.588 74.4008 209.602 78.822 209.409 85.1775H203.132C203.469 74.4008 205.164 66.7741 208.219 62.2976C211.273 57.9869 214.965 55.8316 219.294 55.8316C221.074 55.8316 222.829 56.0526 224.561 56.4947C226.269 57.1579 227.796 58.3461 229.143 60.0594C230.513 61.7726 231.62 64.2043 232.462 67.3544C233.231 70.5045 233.616 74.6771 233.616 79.872V125.052C233.568 128.478 233.676 130.91 233.941 132.347C234.133 134.06 234.698 134.916 235.636 134.916C236.117 134.916 236.755 134.64 237.548 134.087Z" fill="#F8FAF6"/>
<path d="M252.123 31.5424V57.8211H259.735V70.5874H252.123V125.052C252.075 128.146 252.387 130.246 253.061 131.352C253.71 132.457 254.973 132.954 256.849 132.844H259.735V145.61H254.937C251.714 145.721 249.393 144.477 247.974 141.88C246.555 139.393 245.846 134.253 245.846 126.461V70.5874H239.316V57.8211H245.846V31.5424H252.123Z" fill="#F8FAF6"/>
<path d="M264.641 101.84C264.641 88.5763 266.24 77.6338 269.439 69.0124C272.542 60.3357 277.123 55.9421 283.184 55.8316C289.245 55.9421 293.874 60.3357 297.073 69.0124C300.176 77.6338 301.727 88.5763 301.727 101.84C301.727 114.827 300.176 125.632 297.073 134.253C293.874 142.93 289.245 147.406 283.184 147.683C277.123 147.406 272.542 142.93 269.439 134.253C266.24 125.632 264.641 114.827 264.641 101.84ZM271.279 101.84C271.327 112.451 272.506 120.603 274.814 126.295C277.027 132.043 279.817 134.916 283.184 134.916C286.575 134.916 289.377 132.043 291.59 126.295C293.85 120.603 295.005 112.451 295.053 101.84C295.005 91.0633 293.85 82.8011 291.59 77.0535C289.377 71.3612 286.575 68.515 283.184 68.515C279.817 68.515 277.027 71.3612 274.814 77.0535C272.506 82.8011 271.327 91.0633 271.279 101.84Z" fill="#F8FAF6"/>
<path d="M308.906 145.61V57.8211H314.822V76.3074H314.967C317.78 62.1595 322.458 55.3342 329 55.8316V71.0848C319.548 71.4164 314.943 83.2432 315.183 106.565V145.61H308.906Z" fill="#F8FAF6"/>
<path d="M43.0282 130.523C40.9598 136.713 38.4225 141.244 35.4162 144.118C32.4099 147.047 29.3074 148.512 26.1087 148.512C18.2442 148.18 12.1113 141.907 7.71007 129.694C3.23669 117.922 1 103.83 1 87.4158C1 69.1782 3.11644 53.7867 7.34932 41.2415C11.486 28.4199 17.7391 21.8433 26.1087 21.5117C31.977 21.5117 36.9554 24.6342 41.044 30.8792C45.1326 37.29 47.718 47.5694 48.8003 61.7173H41.7655C41.044 52.5433 39.2763 45.7732 36.4624 41.4073C33.5523 37.2071 30.101 35.107 26.1087 35.107C19.8074 35.3281 15.2018 40.5783 12.2917 50.8577C9.40563 61.0818 7.98666 72.9639 8.03476 86.5039C8.03476 99.5465 9.61006 110.765 12.7607 120.161C15.8151 129.777 20.2644 134.695 26.1087 134.916C31.6403 134.806 35.9092 130.965 38.9155 123.394C41.8497 116.043 43.2206 106.703 43.0282 95.374H26.1808V81.7787H49.3053V145.61H44.868L43.0282 130.523Z" stroke="black" stroke-width="2" mask="url(#path-2-outside-2_3_60)"/>
<path d="M84.9842 117.756H91.1892C89.1689 137.431 83.7335 147.406 74.883 147.683C68.8223 147.406 64.3128 143.04 61.3546 134.585C58.3483 126.184 56.7489 115.159 56.5565 101.508C56.6046 88.0237 58.3002 77.0811 61.6432 68.6808C64.9381 60.2252 69.2191 55.9421 74.4861 55.8316C81.1962 56.1632 85.8259 61.8002 88.3753 72.7428C90.9487 83.5195 92.0911 94.6279 91.8025 106.068H63.1945C63.0983 113.86 64.0362 120.52 66.0084 126.046C67.9324 131.849 70.9628 134.806 75.0994 134.916C80.4146 134.916 83.7095 129.196 84.9842 117.756ZM63.1945 93.3015H85.1285C84.9361 86.1723 83.8538 80.2865 81.8817 75.6442C79.9095 71.0019 77.3241 68.6255 74.1254 68.515C70.8786 68.6255 68.3172 71.0019 66.4413 75.6442C64.5172 80.3971 63.435 86.2828 63.1945 93.3015Z" stroke="black" stroke-width="2" mask="url(#path-2-outside-2_3_60)"/>
<path d="M98.2961 145.61V57.8211H104.212V71.748H104.357C107.123 61.137 111.259 55.8316 116.767 55.8316C121.745 55.9421 125.221 58.8712 127.193 64.6188C129.069 70.5322 129.983 78.297 129.934 87.9132V145.61H123.621V86.1723C123.525 74.7323 120.94 68.8466 115.865 68.515C112.137 68.6255 109.335 71.1677 107.459 76.1416C105.535 81.2813 104.573 87.9132 104.573 96.0372V145.61H98.2961Z" stroke="black" stroke-width="2" mask="url(#path-2-outside-2_3_60)"/>
<path d="M165.794 117.756H171.999C169.978 137.431 164.543 147.406 155.692 147.683C149.632 147.406 145.122 143.04 142.164 134.585C139.158 126.184 137.558 115.159 137.366 101.508C137.414 88.0237 139.11 77.0811 142.453 68.6808C145.748 60.2252 150.029 55.9421 155.296 55.8316C162.006 56.1632 166.635 61.8002 169.185 72.7428C171.758 83.5195 172.901 94.6279 172.612 106.068H144.004C143.908 113.86 144.846 120.52 146.818 126.046C148.742 131.849 151.772 134.806 155.909 134.916C161.224 134.916 164.519 129.196 165.794 117.756ZM144.004 93.3015H165.938C165.746 86.1723 164.663 80.2865 162.691 75.6442C160.719 71.0019 158.134 68.6255 154.935 68.515C151.688 68.6255 149.127 71.0019 147.251 75.6442C145.327 80.3971 144.244 86.2828 144.004 93.3015Z" stroke="black" stroke-width="2" mask="url(#path-2-outside-2_3_60)"/>
<path d="M178.889 145.61V57.8211H184.806V76.3074H184.95C187.764 62.1595 192.442 55.3342 198.983 55.8316V71.0848C189.531 71.4164 184.926 83.2432 185.166 106.565V145.61H178.889Z" stroke="black" stroke-width="2" mask="url(#path-2-outside-2_3_60)"/>
<path d="M227.339 100.265C226.112 102.199 224.465 103.443 222.396 103.995C220.28 104.714 218.139 105.46 215.975 106.234C213.858 106.897 212.067 108.361 210.6 110.627C209.06 112.893 208.291 116.679 208.291 121.984C208.291 126.627 209.06 129.97 210.6 132.015C212.019 133.949 213.714 134.916 215.686 134.916C217.755 134.916 219.546 134.17 221.062 132.678C222.553 131.462 223.767 129.832 224.705 127.787C226.461 123.476 227.339 119.221 227.339 115.021V100.265ZM237.548 134.087V145.279C236.514 146.881 235.011 147.683 233.039 147.683C229.551 147.793 227.784 143.261 227.736 134.087C224.176 143.151 219.691 147.683 214.279 147.683C210.72 147.683 207.762 145.693 205.405 141.714C202.952 137.845 201.701 131.628 201.653 123.062C201.653 117.922 202.038 113.777 202.807 110.627C203.505 107.367 204.467 104.824 205.693 103.001C206.992 101.066 208.399 99.5465 209.914 98.4412C211.405 97.3912 212.957 96.5898 214.568 96.0372C216.348 95.2635 218.019 94.6555 219.582 94.2134C221.122 93.716 222.481 93.1357 223.659 92.4726C226.112 91.3672 227.363 88.2447 227.411 83.1051C227.411 79.9549 227.194 77.3575 226.762 75.3126C226.208 73.4889 225.523 72.0796 224.705 71.0848C222.974 69.2611 221.05 68.4045 218.933 68.515C216.215 68.515 214.027 69.6479 212.367 71.9138C210.588 74.4008 209.602 78.822 209.409 85.1775H203.132C203.469 74.4008 205.164 66.7741 208.219 62.2976C211.273 57.9869 214.965 55.8316 219.294 55.8316C221.074 55.8316 222.829 56.0526 224.561 56.4947C226.269 57.1579 227.796 58.3461 229.143 60.0594C230.513 61.7726 231.62 64.2043 232.462 67.3544C233.231 70.5045 233.616 74.6771 233.616 79.872V125.052C233.568 128.478 233.676 130.91 233.941 132.347C234.133 134.06 234.698 134.916 235.636 134.916C236.117 134.916 236.755 134.64 237.548 134.087Z" stroke="black" stroke-width="2" mask="url(#path-2-outside-2_3_60)"/>
<path d="M252.123 31.5424V57.8211H259.735V70.5874H252.123V125.052C252.075 128.146 252.387 130.246 253.061 131.352C253.71 132.457 254.973 132.954 256.849 132.844H259.735V145.61H254.937C251.714 145.721 249.393 144.477 247.974 141.88C246.555 139.393 245.846 134.253 245.846 126.461V70.5874H239.316V57.8211H245.846V31.5424H252.123Z" stroke="black" stroke-width="2" mask="url(#path-2-outside-2_3_60)"/>
<path d="M264.641 101.84C264.641 88.5763 266.24 77.6338 269.439 69.0124C272.542 60.3357 277.123 55.9421 283.184 55.8316C289.245 55.9421 293.874 60.3357 297.073 69.0124C300.176 77.6338 301.727 88.5763 301.727 101.84C301.727 114.827 300.176 125.632 297.073 134.253C293.874 142.93 289.245 147.406 283.184 147.683C277.123 147.406 272.542 142.93 269.439 134.253C266.24 125.632 264.641 114.827 264.641 101.84ZM271.279 101.84C271.327 112.451 272.506 120.603 274.814 126.295C277.027 132.043 279.817 134.916 283.184 134.916C286.575 134.916 289.377 132.043 291.59 126.295C293.85 120.603 295.005 112.451 295.053 101.84C295.005 91.0633 293.85 82.8011 291.59 77.0535C289.377 71.3612 286.575 68.515 283.184 68.515C279.817 68.515 277.027 71.3612 274.814 77.0535C272.506 82.8011 271.327 91.0633 271.279 101.84Z" stroke="black" stroke-width="2" mask="url(#path-2-outside-2_3_60)"/>
<path d="M308.906 145.61V57.8211H314.822V76.3074H314.967C317.78 62.1595 322.458 55.3342 329 55.8316V71.0848C319.548 71.4164 314.943 83.2432 315.183 106.565V145.61H308.906Z" stroke="black" stroke-width="2" mask="url(#path-2-outside-2_3_60)"/>
</g>
<defs>
<filter id="filter0_d_3_60" x="64.9199" y="0" width="165.08" height="45" filterUnits="userSpaceOnUse" color-interpolation-filters="sRGB">
<feFlood flood-opacity="0" result="BackgroundImageFix"/>
<feColorMatrix in="SourceAlpha" type="matrix" values="0 0 0 0 0 0 0 0 0 0 0 0 0 0 0 0 0 0 127 0" result="hardAlpha"/>
<feOffset dx="2" dy="1"/>
<feComposite in2="hardAlpha" operator="out"/>
<feColorMatrix type="matrix" values="0 0 0 0 0 0 0 0 0 0 0 0 0 0 0 0 0 0 1 0"/>
<feBlend mode="normal" in2="BackgroundImageFix" result="effect1_dropShadow_3_60"/>
<feBlend mode="normal" in="SourceGraphic" in2="effect1_dropShadow_3_60" result="shape"/>
</filter>
<filter id="filter1_d_3_60" x="0" y="20.5117" width="333" height="131" filterUnits="userSpaceOnUse" color-interpolation-filters="sRGB">
<feFlood flood-opacity="0" result="BackgroundImageFix"/>
<feColorMatrix in="SourceAlpha" type="matrix" values="0 0 0 0 0 0 0 0 0 0 0 0 0 0 0 0 0 0 127 0" result="hardAlpha"/>
<feOffset dx="3" dy="2"/>
<feComposite in2="hardAlpha" operator="out"/>
<feColorMatrix type="matrix" values="0 0 0 0 0 0 0 0 0 0 0 0 0 0 0 0 0 0 1 0"/>
<feBlend mode="normal" in2="BackgroundImageFix" result="effect1_dropShadow_3_60"/>
<feBlend mode="normal" in="SourceGraphic" in2="effect1_dropShadow_3_60" result="shape"/>
</filter>
</defs>
</svg>
